name Walk7.mot
datacolumns 19
datarows 20
range 3.53500000 3.63000000
endheader

                time	   L_ground_force_vx	   L_ground_force_vy	   L_ground_force_vz	   L_ground_force_px	   L_ground_force_py	   L_ground_force_pz	   R_ground_force_vx	   R_ground_force_vy	   R_ground_force_vz	   R_ground_force_px	   R_ground_force_py	   R_ground_force_pz	   L_ground_torque_x	   L_ground_torque_y	   L_ground_torque_z	   R_ground_torque_x	   R_ground_torque_y	   R_ground_torque_z	
          3.53500000	          0.00000000	          0.00000000	          0.00000000	          0.00000000	          0.00000000	          0.00000000	          9.06701567	         31.85090023	          4.41639220	          0.31560996	          0.00000000	          0.04320688	          0.00000000	          0.00000000	          0.00000000	          0.00000000	         -2.23620854	          0.00000000	
          3.54000000	          0.00000000	          0.00000000	         -0.00000000	          0.00000000	          0.00000000	          0.00000000	          5.30773102	         18.47218638	          3.54020665	          0.25851969	          0.00000000	          0.03554126	          0.00000000	          0.00000000	          0.00000000	          0.00000000	         -1.39752358	          0.00000000	
          3.54500000	          0.00000000	          0.00000000	         -0.00000000	         -0.00000000	          0.00000000	         -0.00000000	          2.47714747	          8.43507477	          2.69859125	          0.20156971	          0.00000000	          0.02783101	          0.00000000	          0.00000000	          0.00000000	          0.00000000	         -0.74926062	          0.00000000	
          3.55000000	          0.00000000	          0.00000000	         -0.00000000	         -0.00000000	          0.00000000	         -0.00000000	          0.46603666	          1.33135711	          1.94545365	          0.14910707	          0.00000000	          0.02068549	          0.00000000	          0.00000000	          0.00000000	          0.00000000	         -0.27428469	          0.00000000	
          3.55500000	          0.00000000	          0.00000000	         -0.00000000	         -0.00000000	          0.00000000	         -0.00000000	         -0.86050761	         -3.32941367	          1.30861924	          0.10367123	          0.00000000	          0.01446723	          0.00000000	          0.00000000	          0.00000000	          0.00000000	          0.05200078	          0.00000000	
          3.56000000	          0.00000000	          0.00000000	         -0.00000000	         -0.00000000	          0.00000000	         -0.00000000	         -1.64313900	         -6.05495931	          0.79673372	          0.06633496	          0.00000000	          0.00933540	          0.00000000	          0.00000000	          0.00000000	          0.00000000	          0.25712869	          0.00000000	
          3.56500000	          0.00000000	          0.00000000	         -0.00000000	         -0.00000000	          0.00000000	         -0.00000000	         -2.01507293	         -7.32392486	          0.40545944	          0.03714564	          0.00000000	          0.00530613	          0.00000000	          0.00000000	          0.00000000	          0.00000000	          0.36833748	          0.00000000	
          3.57000000	          0.00000000	          0.00000000	         -0.00000000	         -0.00000000	          0.00000000	         -0.00000000	         -2.09421905	         -7.55845399	          0.12247589	          0.01548933	          0.00000000	          0.00230260	          0.00000000	          0.00000000	          0.00000000	          0.00000000	          0.41052248	          0.00000000	
          3.57500000	          0.00000000	          0.00000000	         -0.00000000	         -0.00000000	          0.00000000	         -0.00000000	         -1.97934651	         -7.11107066	         -0.06868235	          0.00037653	          0.00000000	          0.00019438	          0.00000000	         -0.00000000	          0.00000000	          0.00000000	          0.40510754	          0.00000000	
          3.58000000	          0.00000000	          0.00000000	         -0.00000000	         -0.00000000	          0.00000000	         -0.00000000	         -1.74913861	         -6.26177268	         -0.18583648	         -0.00934479	          0.00000000	         -0.00117296	          0.00000000	         -0.00000000	          0.00000000	          0.00000000	          0.36959594	          0.00000000	
          3.58500000	          0.00000000	          0.00000000	         -0.00000000	         -0.00000000	          0.00000000	         -0.00000000	         -1.46317502	         -5.22190384	         -0.24626773	         -0.01483982	          0.00000000	         -0.00195703	          0.00000000	         -0.00000000	          0.00000000	          0.00000000	          0.31759246	          0.00000000	
          3.59000000	          0.00000000	         -0.00000000	         -0.00000000	         -0.00000000	          0.00000000	         -0.00000000	         -1.16407266	         -4.14206664	         -0.26554432	         -0.01719003	          0.00000000	         -0.00230507	          0.00000000	         -0.00000000	          0.00000000	          0.00000000	          0.25912592	          0.00000000	
          3.59500000	          0.00000000	         -0.00000000	         -0.00000000	         -0.00000000	          0.00000000	         -0.00000000	         -0.88020004	         -3.12200057	         -0.25690468	         -0.01733765	          0.00000000	         -0.00234595	          0.00000000	         -0.00000000	          0.00000000	          0.00000000	          0.20113873	          0.00000000	
          3.60000000	         -0.00000000	         -0.00000000	         -0.00000000	         -0.00000000	          0.00000000	         -0.00000000	         -0.62854485	         -2.22093947	         -0.23104620	         -0.01606112	          0.00000000	         -0.00218664	          0.00000000	         -0.00000000	          0.00000000	          0.00000000	          0.14804503	          0.00000000	
          3.60500000	         -0.00000000	         -0.00000000	         -0.00000000	         -0.00000000	          0.00000000	         -0.00000000	         -0.41745295	         -1.46745698	         -0.19619069	         -0.01397226	          0.00000000	         -0.00191153	          0.00000000	         -0.00000000	          0.00000000	          0.00000000	          0.10228849	          0.00000000	
          3.61000000	         -0.00000000	         -0.00000000	          0.00000000	         -0.00000000	          0.00000000	         -0.00000000	         -0.24906832	         -0.86820515	         -0.15832222	         -0.01152768	          0.00000000	         -0.00158394	          0.00000000	         -0.00000000	          0.00000000	          0.00000000	          0.06485593	          0.00000000	
          3.61500000	         -0.00000000	         -0.00000000	          0.00000000	          0.00000000	          0.00000000	          0.00000000	         -0.12138823	         -0.41525204	         -0.12151652	         -0.00904832	          0.00000000	         -0.00124858	          0.00000000	         -0.00000000	          0.00000000	          0.00000000	          0.03572183	          0.00000000	
          3.62000000	         -0.00000000	         -0.00000000	          0.00000000	          0.00000000	          0.00000000	          0.00000000	         -0.02990912	         -0.09194056	         -0.08830326	         -0.00674274	          0.00000000	         -0.00093478	          0.00000000	         -0.00000000	          0.00000000	          0.00000000	          0.01421354	          0.00000000	
          3.62500000	         -0.00000000	         -0.00000000	          0.00000000	          0.00000000	          0.00000000	          0.00000000	          0.03112011	          0.12266421	         -0.06002052	         -0.00473095	          0.00000000	         -0.00065961	          0.00000000	         -0.00000000	          0.00000000	          0.00000000	         -0.00070344	          0.00000000	
          3.63000000	         -0.00000000	         -0.00000000	          0.00000000	          0.00000000	          0.00000000	          0.00000000	          0.06779575	          0.25058484	         -0.03713644	         -0.00306666	          0.00000000	         -0.00043099	          0.00000000	         -0.00000000	          0.00000000	          0.00000000	         -0.01021377	          0.00000000	
